<?xml version="1.0" encoding="UTF-8"?>
<!DOCTYPE svg PUBLIC "-//W3C//DTD SVG 1.1//EN" "http://www.w3.org/Graphics/SVG/1.1/DTD/svg11.dtd">
<svg version="1.2" width="73.91mm" height="23.11mm" viewBox="0 0 7391 2311" preserveAspectRatio="xMidYMid" fill-rule="evenodd" stroke-width="28.222" stroke-linejoin="round" xmlns="http://www.w3.org/2000/svg" xmlns:ooo="http://xml.openoffice.org/svg/export" xmlns:xlink="http://www.w3.org/1999/xlink" xmlns:presentation="http://sun.com/xmlns/staroffice/presentation" xmlns:smil="http://www.w3.org/2001/SMIL20/" xmlns:anim="urn:oasis:names:tc:opendocument:xmlns:animation:1.0" xml:space="preserve">
 <defs class="ClipPathGroup">
  <clipPath id="presentation_clip_path" clipPathUnits="userSpaceOnUse">
   <rect x="0" y="0" width="7391" height="2311"/>
  </clipPath>
  <clipPath id="presentation_clip_path_shrink" clipPathUnits="userSpaceOnUse">
   <rect x="7" y="2" width="7377" height="2307"/>
  </clipPath>
 </defs>
 <defs class="TextShapeIndex">
  <g ooo:slide="id1" ooo:id-list="id3 id4 id5 id6 id7 id8 id9 id10 id11 id12 id13 id14"/>
 </defs>
 <defs class="EmbeddedBulletChars">
  <g id="bullet-char-template-57356" transform="scale(0.00048828125,-0.00048828125)">
   <path d="M 580,1141 L 1163,571 580,0 -4,571 580,1141 Z"/>
  </g>
  <g id="bullet-char-template-57354" transform="scale(0.00048828125,-0.00048828125)">
   <path d="M 8,1128 L 1137,1128 1137,0 8,0 8,1128 Z"/>
  </g>
  <g id="bullet-char-template-10146" transform="scale(0.00048828125,-0.00048828125)">
   <path d="M 174,0 L 602,739 174,1481 1456,739 174,0 Z M 1358,739 L 309,1346 659,739 1358,739 Z"/>
  </g>
  <g id="bullet-char-template-10132" transform="scale(0.00048828125,-0.00048828125)">
   <path d="M 2015,739 L 1276,0 717,0 1260,543 174,543 174,936 1260,936 717,1481 1274,1481 2015,739 Z"/>
  </g>
  <g id="bullet-char-template-10007" transform="scale(0.00048828125,-0.00048828125)">
   <path d="M 0,-2 C -7,14 -16,27 -25,37 L 356,567 C 262,823 215,952 215,954 215,979 228,992 255,992 264,992 276,990 289,987 310,991 331,999 354,1012 L 381,999 492,748 772,1049 836,1024 860,1049 C 881,1039 901,1025 922,1006 886,937 835,863 770,784 769,783 710,716 594,584 L 774,223 C 774,196 753,168 711,139 L 727,119 C 717,90 699,76 672,76 641,76 570,178 457,381 L 164,-76 C 142,-110 111,-127 72,-127 30,-127 9,-110 8,-76 1,-67 -2,-52 -2,-32 -2,-23 -1,-13 0,-2 Z"/>
  </g>
  <g id="bullet-char-template-10004" transform="scale(0.00048828125,-0.00048828125)">
   <path d="M 285,-33 C 182,-33 111,30 74,156 52,228 41,333 41,471 41,549 55,616 82,672 116,743 169,778 240,778 293,778 328,747 346,684 L 369,508 C 377,444 397,411 428,410 L 1163,1116 C 1174,1127 1196,1133 1229,1133 1271,1133 1292,1118 1292,1087 L 1292,965 C 1292,929 1282,901 1262,881 L 442,47 C 390,-6 338,-33 285,-33 Z"/>
  </g>
  <g id="bullet-char-template-9679" transform="scale(0.00048828125,-0.00048828125)">
   <path d="M 813,0 C 632,0 489,54 383,161 276,268 223,411 223,592 223,773 276,916 383,1023 489,1130 632,1184 813,1184 992,1184 1136,1130 1245,1023 1353,916 1407,772 1407,592 1407,412 1353,268 1245,161 1136,54 992,0 813,0 Z"/>
  </g>
  <g id="bullet-char-template-8226" transform="scale(0.00048828125,-0.00048828125)">
   <path d="M 346,457 C 273,457 209,483 155,535 101,586 74,649 74,723 74,796 101,859 155,911 209,963 273,989 346,989 419,989 480,963 531,910 582,859 608,796 608,723 608,648 583,586 532,535 482,483 420,457 346,457 Z"/>
  </g>
  <g id="bullet-char-template-8211" transform="scale(0.00048828125,-0.00048828125)">
   <path d="M -4,459 L 1135,459 1135,606 -4,606 -4,459 Z"/>
  </g>
  <g id="bullet-char-template-61548" transform="scale(0.00048828125,-0.00048828125)">
   <path d="M 173,740 C 173,903 231,1043 346,1159 462,1274 601,1332 765,1332 928,1332 1067,1274 1183,1159 1299,1043 1357,903 1357,740 1357,577 1299,437 1183,322 1067,206 928,148 765,148 601,148 462,206 346,322 231,437 173,577 173,740 Z"/>
  </g>
 </defs>
 <g>
  <g id="id2" class="Master_Slide">
   <g id="bg-id2" class="Background"/>
   <g id="bo-id2" class="BackgroundObjects"/>
  </g>
 </g>
 <g class="SlideGroup">
  <g>
   <g id="container-id1">
    <g id="id1" class="Slide" clip-path="url(#presentation_clip_path)">
     <g class="Page">
      <g class="com.sun.star.drawing.ClosedBezierShape">
       <g id="id3">
        <rect class="BoundingBox" stroke="none" fill="none" x="873" y="322" width="6478" height="1836"/>
        <path fill="rgb(0,0,0)" stroke="none" d="M 7350,2157 L 874,2157 874,323 6429,323 C 6938,323 7350,729 7350,1230 L 7350,2157 Z"/>
       </g>
      </g>
      <g class="com.sun.star.drawing.ClosedBezierShape">
       <g id="id4">
        <rect class="BoundingBox" stroke="none" fill="none" x="102" y="209" width="2093" height="2062"/>
        <path fill="rgb(0,0,0)" stroke="none" d="M 2193,1241 C 2193,1809 1725,2270 1148,2270 570,2270 102,1809 102,1241 102,671 570,209 1148,209 1725,209 2193,671 2193,1241 Z"/>
       </g>
      </g>
      <g class="com.sun.star.drawing.ClosedBezierShape">
       <g id="id5">
        <rect class="BoundingBox" stroke="none" fill="none" x="224" y="329" width="1849" height="1823"/>
        <path fill="none" stroke="rgb(0,0,0)" stroke-width="35" stroke-linejoin="miter" d="M 1148,2133 C 649,2133 242,1733 242,1241 242,748 649,347 1148,347 1648,347 2054,748 2054,1241 2054,1733 1648,2133 1148,2133 Z"/>
       </g>
      </g>
      <g class="com.sun.star.drawing.ClosedBezierShape">
       <g id="id6">
        <rect class="BoundingBox" stroke="none" fill="none" x="2601" y="1042" width="3903" height="430"/>
        <path fill="rgb(0,0,0)" stroke="none" d="M 4569,1301 L 4360,1050 4280,1050 4280,1464 4376,1464 4376,1213 4585,1464 4665,1464 4665,1050 4569,1050 4569,1301 Z M 5734,1303 L 5800,1144 5867,1303 5734,1303 Z M 5752,1050 L 5566,1464 5665,1464 5702,1375 5897,1375 5935,1464 6036,1464 5849,1050 5752,1050 Z M 4035,1344 L 3939,1050 3849,1050 3750,1341 3655,1050 3554,1050 3692,1464 3796,1464 3892,1184 3984,1464 4089,1464 4225,1050 4132,1050 4035,1344 Z M 5323,1389 C 5248,1389 5192,1336 5192,1257 5192,1178 5248,1125 5323,1125 5398,1125 5455,1178 5455,1257 5455,1336 5398,1389 5323,1389 Z M 5323,1043 C 5191,1043 5094,1134 5094,1257 5094,1380 5191,1471 5323,1471 5455,1471 5553,1381 5553,1257 5553,1133 5455,1043 5323,1043 Z M 4862,1050 L 4765,1050 4765,1464 5073,1464 5073,1386 4862,1386 4862,1050 Z M 2788,1385 L 2699,1385 2699,1129 2788,1129 C 2871,1129 2926,1178 2926,1257 2926,1336 2871,1385 2788,1385 Z M 2793,1050 L 2602,1050 2602,1464 2793,1464 C 2930,1464 3024,1382 3024,1257 3024,1132 2930,1050 2793,1050 Z M 3301,1389 C 3226,1389 3169,1336 3169,1257 3169,1178 3226,1125 3301,1125 3376,1125 3432,1178 3432,1257 3432,1336 3376,1389 3301,1389 Z M 3301,1043 C 3168,1043 3071,1134 3071,1257 3071,1380 3168,1471 3301,1471 3433,1471 3531,1381 3531,1257 3531,1133 3433,1043 3301,1043 Z M 6266,1385 L 6178,1385 6178,1129 6266,1129 C 6350,1129 6404,1178 6404,1257 6404,1336 6350,1385 6266,1385 Z M 6271,1050 L 6080,1050 6080,1464 6271,1464 C 6408,1464 6503,1382 6503,1257 6503,1132 6408,1050 6271,1050 Z"/>
       </g>
      </g>
      <g class="com.sun.star.drawing.LineShape">
       <g id="id7">
        <rect class="BoundingBox" stroke="none" fill="none" x="1059" y="788" width="178" height="882"/>
        <path fill="none" stroke="rgb(0,0,0)" stroke-width="176" stroke-linejoin="miter" stroke-linecap="round" d="M 1147,876 L 1147,1580"/>
       </g>
      </g>
      <g class="com.sun.star.drawing.PolyLineShape">
       <g id="id8">
        <rect class="BoundingBox" stroke="none" fill="none" x="752" y="1247" width="793" height="474"/>
        <path fill="none" stroke="rgb(0,0,0)" stroke-width="176" stroke-linejoin="miter" stroke-linecap="round" d="M 1455,1336 L 1148,1603 840,1336"/>
       </g>
      </g>
      <g class="com.sun.star.drawing.ClosedBezierShape">
       <g id="id9">
        <rect class="BoundingBox" stroke="none" fill="none" x="818" y="159" width="6478" height="1837"/>
        <path fill="rgb(255,255,255)" stroke="none" d="M 7295,1994 L 818,1994 818,159 6375,159 C 6883,159 7295,565 7295,1067 L 7295,1994 Z"/>
       </g>
      </g>
      <g class="com.sun.star.drawing.ClosedBezierShape">
       <g id="id10">
        <rect class="BoundingBox" stroke="none" fill="none" x="47" y="46" width="2093" height="2062"/>
        <path fill="rgb(0,136,255)" stroke="none" d="M 2138,1077 C 2138,1646 1670,2107 1093,2107 515,2107 47,1646 47,1077 47,507 515,47 1093,47 1670,47 2138,507 2138,1077 Z"/>
       </g>
      </g>
      <g class="com.sun.star.drawing.ClosedBezierShape">
       <g id="id11">
        <rect class="BoundingBox" stroke="none" fill="none" x="168" y="165" width="1850" height="1824"/>
        <path fill="none" stroke="rgb(248,251,252)" stroke-width="35" stroke-linejoin="miter" d="M 1093,1970 C 593,1970 186,1569 186,1077 186,585 593,183 1093,183 1593,183 1999,585 1999,1077 1999,1569 1593,1970 1093,1970 Z"/>
       </g>
      </g>
      <g class="com.sun.star.drawing.ClosedBezierShape">
       <g id="id12">
        <rect class="BoundingBox" stroke="none" fill="none" x="2546" y="879" width="3903" height="431"/>
        <path fill="rgb(0,136,255)" stroke="none" d="M 4514,1138 L 4305,886 4224,886 4224,1301 4321,1301 4321,1049 4530,1301 4610,1301 4610,886 4514,886 4514,1138 Z M 5678,1140 L 5745,980 5811,1140 5678,1140 Z M 5698,886 L 5510,1301 5609,1301 5647,1212 5842,1212 5879,1301 5981,1301 5793,886 5698,886 Z M 3980,1180 L 3884,886 3794,886 3695,1178 3600,886 3498,886 3637,1301 3741,1301 3836,1020 3928,1301 4033,1301 4171,886 4078,886 3980,1180 Z M 5268,1227 C 5194,1227 5137,1173 5137,1094 5137,1015 5194,961 5268,961 5343,961 5400,1015 5400,1094 5400,1173 5343,1227 5268,1227 Z M 5268,879 C 5136,879 5038,970 5038,1094 5038,1217 5136,1308 5268,1308 5400,1308 5498,1217 5498,1094 5498,969 5400,879 5268,879 Z M 4807,886 L 4710,886 4710,1301 5017,1301 5017,1223 4807,1223 4807,886 Z M 2732,1222 L 2643,1222 2643,965 2732,965 C 2816,965 2871,1014 2871,1094 2871,1174 2816,1222 2732,1222 Z M 2737,886 L 2546,886 2546,1301 2737,1301 C 2875,1301 2969,1220 2969,1094 2969,968 2875,886 2737,886 Z M 3246,1227 C 3171,1227 3114,1173 3114,1094 3114,1015 3171,961 3246,961 3320,961 3377,1015 3377,1094 3377,1173 3320,1227 3246,1227 Z M 3246,879 C 3113,879 3016,970 3016,1094 3016,1217 3113,1308 3246,1308 3377,1308 3476,1217 3476,1094 3476,969 3377,879 3246,879 Z M 6211,1222 L 6122,1222 6122,965 6211,965 C 6294,965 6349,1014 6349,1094 6349,1174 6294,1222 6211,1222 Z M 6216,886 L 6025,886 6025,1301 6216,1301 C 6353,1301 6447,1220 6447,1094 6447,968 6353,886 6216,886 Z"/>
       </g>
      </g>
      <g class="com.sun.star.drawing.LineShape">
       <g id="id13">
        <rect class="BoundingBox" stroke="none" fill="none" x="1003" y="625" width="178" height="881"/>
        <path fill="none" stroke="rgb(255,255,255)" stroke-width="176" stroke-linejoin="miter" stroke-linecap="round" d="M 1092,713 L 1092,1417"/>
       </g>
      </g>
      <g class="com.sun.star.drawing.PolyLineShape">
       <g id="id14">
        <rect class="BoundingBox" stroke="none" fill="none" x="696" y="1084" width="794" height="475"/>
        <path fill="none" stroke="rgb(255,255,255)" stroke-width="176" stroke-linejoin="miter" stroke-linecap="round" d="M 1401,1173 L 1093,1441 785,1173"/>
       </g>
      </g>
     </g>
    </g>
   </g>
  </g>
 </g>
</svg>