<?xml version="1.0" encoding="UTF-8"?>
<!DOCTYPE svg PUBLIC "-//W3C//DTD SVG 1.1//EN" "http://www.w3.org/Graphics/SVG/1.1/DTD/svg11.dtd">
<svg version="1.2" width="94.23mm" height="29.72mm" viewBox="0 0 9423 2972" preserveAspectRatio="xMidYMid" fill-rule="evenodd" stroke-width="28.222" stroke-linejoin="round" xmlns="http://www.w3.org/2000/svg" xmlns:ooo="http://xml.openoffice.org/svg/export" xmlns:xlink="http://www.w3.org/1999/xlink" xmlns:presentation="http://sun.com/xmlns/staroffice/presentation" xmlns:smil="http://www.w3.org/2001/SMIL20/" xmlns:anim="urn:oasis:names:tc:opendocument:xmlns:animation:1.0" xml:space="preserve">
 <defs class="ClipPathGroup">
  <clipPath id="presentation_clip_path" clipPathUnits="userSpaceOnUse">
   <rect x="0" y="0" width="9423" height="2972"/>
  </clipPath>
  <clipPath id="presentation_clip_path_shrink" clipPathUnits="userSpaceOnUse">
   <rect x="9" y="2" width="9405" height="2967"/>
  </clipPath>
 </defs>
 <defs class="TextShapeIndex">
  <g ooo:slide="id1" ooo:id-list="id3 id4 id5 id6 id7 id8 id9 id10 id11 id12 id13 id14"/>
 </defs>
 <defs class="EmbeddedBulletChars">
  <g id="bullet-char-template-57356" transform="scale(0.00048828125,-0.00048828125)">
   <path d="M 580,1141 L 1163,571 580,0 -4,571 580,1141 Z"/>
  </g>
  <g id="bullet-char-template-57354" transform="scale(0.00048828125,-0.00048828125)">
   <path d="M 8,1128 L 1137,1128 1137,0 8,0 8,1128 Z"/>
  </g>
  <g id="bullet-char-template-10146" transform="scale(0.00048828125,-0.00048828125)">
   <path d="M 174,0 L 602,739 174,1481 1456,739 174,0 Z M 1358,739 L 309,1346 659,739 1358,739 Z"/>
  </g>
  <g id="bullet-char-template-10132" transform="scale(0.00048828125,-0.00048828125)">
   <path d="M 2015,739 L 1276,0 717,0 1260,543 174,543 174,936 1260,936 717,1481 1274,1481 2015,739 Z"/>
  </g>
  <g id="bullet-char-template-10007" transform="scale(0.00048828125,-0.00048828125)">
   <path d="M 0,-2 C -7,14 -16,27 -25,37 L 356,567 C 262,823 215,952 215,954 215,979 228,992 255,992 264,992 276,990 289,987 310,991 331,999 354,1012 L 381,999 492,748 772,1049 836,1024 860,1049 C 881,1039 901,1025 922,1006 886,937 835,863 770,784 769,783 710,716 594,584 L 774,223 C 774,196 753,168 711,139 L 727,119 C 717,90 699,76 672,76 641,76 570,178 457,381 L 164,-76 C 142,-110 111,-127 72,-127 30,-127 9,-110 8,-76 1,-67 -2,-52 -2,-32 -2,-23 -1,-13 0,-2 Z"/>
  </g>
  <g id="bullet-char-template-10004" transform="scale(0.00048828125,-0.00048828125)">
   <path d="M 285,-33 C 182,-33 111,30 74,156 52,228 41,333 41,471 41,549 55,616 82,672 116,743 169,778 240,778 293,778 328,747 346,684 L 369,508 C 377,444 397,411 428,410 L 1163,1116 C 1174,1127 1196,1133 1229,1133 1271,1133 1292,1118 1292,1087 L 1292,965 C 1292,929 1282,901 1262,881 L 442,47 C 390,-6 338,-33 285,-33 Z"/>
  </g>
  <g id="bullet-char-template-9679" transform="scale(0.00048828125,-0.00048828125)">
   <path d="M 813,0 C 632,0 489,54 383,161 276,268 223,411 223,592 223,773 276,916 383,1023 489,1130 632,1184 813,1184 992,1184 1136,1130 1245,1023 1353,916 1407,772 1407,592 1407,412 1353,268 1245,161 1136,54 992,0 813,0 Z"/>
  </g>
  <g id="bullet-char-template-8226" transform="scale(0.00048828125,-0.00048828125)">
   <path d="M 346,457 C 273,457 209,483 155,535 101,586 74,649 74,723 74,796 101,859 155,911 209,963 273,989 346,989 419,989 480,963 531,910 582,859 608,796 608,723 608,648 583,586 532,535 482,483 420,457 346,457 Z"/>
  </g>
  <g id="bullet-char-template-8211" transform="scale(0.00048828125,-0.00048828125)">
   <path d="M -4,459 L 1135,459 1135,606 -4,606 -4,459 Z"/>
  </g>
  <g id="bullet-char-template-61548" transform="scale(0.00048828125,-0.00048828125)">
   <path d="M 173,740 C 173,903 231,1043 346,1159 462,1274 601,1332 765,1332 928,1332 1067,1274 1183,1159 1299,1043 1357,903 1357,740 1357,577 1299,437 1183,322 1067,206 928,148 765,148 601,148 462,206 346,322 231,437 173,577 173,740 Z"/>
  </g>
 </defs>
 <g>
  <g id="id2" class="Master_Slide">
   <g id="bg-id2" class="Background"/>
   <g id="bo-id2" class="BackgroundObjects"/>
  </g>
 </g>
 <g class="SlideGroup">
  <g>
   <g id="container-id1">
    <g id="id1" class="Slide" clip-path="url(#presentation_clip_path)">
     <g class="Page">
      <g class="com.sun.star.drawing.ClosedBezierShape">
       <g id="id3">
        <rect class="BoundingBox" stroke="none" fill="none" x="1105" y="405" width="8287" height="2383"/>
        <path fill="rgb(0,0,0)" stroke="none" d="M 9391,2787 L 1105,2787 1105,405 8213,405 C 8864,405 9391,933 9391,1584 L 9391,2787 Z"/>
       </g>
      </g>
      <g class="com.sun.star.drawing.ClosedBezierShape">
       <g id="id4">
        <rect class="BoundingBox" stroke="none" fill="none" x="117" y="258" width="2677" height="2677"/>
        <path fill="rgb(0,0,0)" stroke="none" d="M 2793,1597 C 2793,2335 2194,2934 1456,2934 716,2934 118,2335 118,1597 118,857 716,258 1456,258 2194,258 2793,857 2793,1597 Z"/>
       </g>
      </g>
      <g class="com.sun.star.drawing.ClosedBezierShape">
       <g id="id5">
        <rect class="BoundingBox" stroke="none" fill="none" x="278" y="418" width="2356" height="2357"/>
        <path fill="none" stroke="rgb(0,0,0)" stroke-width="35" stroke-linejoin="miter" d="M 1456,2756 C 817,2756 296,2236 296,1597 296,957 817,436 1456,436 2095,436 2615,957 2615,1597 2615,2236 2095,2756 1456,2756 Z"/>
       </g>
      </g>
      <g class="com.sun.star.drawing.ClosedBezierShape">
       <g id="id6">
        <rect class="BoundingBox" stroke="none" fill="none" x="3316" y="1340" width="4992" height="557"/>
        <path fill="rgb(0,0,0)" stroke="none" d="M 5833,1676 L 5566,1349 5463,1349 5463,1887 5586,1887 5586,1561 5853,1887 5956,1887 5956,1349 5833,1349 5833,1676 Z M 7323,1678 L 7408,1472 7493,1678 7323,1678 Z M 7347,1349 L 7108,1887 7235,1887 7283,1772 7532,1772 7580,1887 7710,1887 7470,1349 7347,1349 Z M 5149,1731 L 5027,1349 4911,1349 4785,1727 4663,1349 4534,1349 4711,1887 4844,1887 4966,1523 5084,1887 5218,1887 5393,1349 5274,1349 5149,1731 Z M 6798,1790 C 6702,1790 6630,1721 6630,1618 6630,1516 6702,1447 6798,1447 6894,1447 6966,1516 6966,1618 6966,1721 6894,1790 6798,1790 Z M 6798,1340 C 6628,1340 6504,1459 6504,1618 6504,1778 6628,1896 6798,1896 6967,1896 7092,1779 7092,1618 7092,1458 6967,1340 6798,1340 Z M 6208,1349 L 6083,1349 6083,1887 6477,1887 6477,1786 6208,1786 6208,1349 Z M 3554,1785 L 3440,1785 3440,1452 3554,1452 C 3660,1452 3730,1516 3730,1618 3730,1721 3660,1785 3554,1785 Z M 3560,1349 L 3316,1349 3316,1887 3560,1887 C 3736,1887 3856,1781 3856,1618 3856,1456 3736,1349 3560,1349 Z M 4210,1790 C 4114,1790 4042,1721 4042,1618 4042,1516 4114,1447 4210,1447 4306,1447 4378,1516 4378,1618 4378,1721 4306,1790 4210,1790 Z M 4210,1340 C 4040,1340 3916,1459 3916,1618 3916,1778 4040,1896 4210,1896 4379,1896 4505,1779 4505,1618 4505,1458 4379,1340 4210,1340 Z M 8004,1785 L 7891,1785 7891,1452 8004,1452 C 8111,1452 8181,1516 8181,1618 8181,1721 8111,1785 8004,1785 Z M 8010,1349 L 7766,1349 7766,1887 8010,1887 C 8186,1887 8307,1781 8307,1618 8307,1456 8186,1349 8010,1349 Z"/>
       </g>
      </g>
      <g class="com.sun.star.drawing.LineShape">
       <g id="id7">
        <rect class="BoundingBox" stroke="none" fill="none" x="1367" y="1036" width="177" height="1091"/>
        <path fill="none" stroke="rgb(0,0,0)" stroke-width="176" stroke-linejoin="miter" stroke-linecap="round" d="M 1455,1124 L 1455,2038"/>
       </g>
      </g>
      <g class="com.sun.star.drawing.PolyLineShape">
       <g id="id8">
        <rect class="BoundingBox" stroke="none" fill="none" x="973" y="1632" width="966" height="555"/>
        <path fill="none" stroke="rgb(0,0,0)" stroke-width="176" stroke-linejoin="miter" stroke-linecap="round" d="M 1849,1721 L 1456,2068 1062,1721"/>
       </g>
      </g>
      <g class="com.sun.star.drawing.ClosedBezierShape">
       <g id="id9">
        <rect class="BoundingBox" stroke="none" fill="none" x="1034" y="193" width="8287" height="2384"/>
        <path fill="rgb(255,255,255)" stroke="none" d="M 9320,2576 L 1034,2576 1034,193 8143,193 C 8793,193 9320,720 9320,1372 L 9320,2576 Z"/>
       </g>
      </g>
      <g class="com.sun.star.drawing.ClosedBezierShape">
       <g id="id10">
        <rect class="BoundingBox" stroke="none" fill="none" x="47" y="47" width="2677" height="2676"/>
        <path fill="rgb(0,136,255)" stroke="none" d="M 2723,1385 C 2723,2123 2124,2722 1385,2722 646,2722 47,2123 47,1385 47,645 646,47 1385,47 2124,47 2723,645 2723,1385 Z"/>
       </g>
      </g>
      <g class="com.sun.star.drawing.ClosedBezierShape">
       <g id="id11">
        <rect class="BoundingBox" stroke="none" fill="none" x="207" y="206" width="2357" height="2357"/>
        <path fill="none" stroke="rgb(248,251,252)" stroke-width="35" stroke-linejoin="miter" d="M 1385,2544 C 746,2544 225,2024 225,1385 225,746 746,224 1385,224 2025,224 2545,746 2545,1385 2545,2024 2025,2544 1385,2544 Z"/>
       </g>
      </g>
      <g class="com.sun.star.drawing.ClosedBezierShape">
       <g id="id12">
        <rect class="BoundingBox" stroke="none" fill="none" x="3245" y="1128" width="4992" height="559"/>
        <path fill="rgb(0,136,255)" stroke="none" d="M 5762,1464 L 5495,1137 5392,1137 5392,1675 5515,1675 5515,1348 5783,1675 5885,1675 5885,1137 5762,1137 5762,1464 Z M 7252,1466 L 7337,1259 7422,1466 7252,1466 Z M 7277,1137 L 7037,1675 7164,1675 7212,1560 7462,1560 7509,1675 7640,1675 7399,1137 7277,1137 Z M 5079,1519 L 4956,1137 4841,1137 4714,1516 4593,1137 4463,1137 4640,1675 4773,1675 4895,1311 5013,1675 5147,1675 5323,1137 5204,1137 5079,1519 Z M 6727,1579 C 6632,1579 6559,1509 6559,1407 6559,1304 6632,1234 6727,1234 6823,1234 6896,1304 6896,1407 6896,1509 6823,1579 6727,1579 Z M 6727,1128 C 6558,1128 6433,1246 6433,1407 6433,1566 6558,1685 6727,1685 6896,1685 7021,1567 7021,1407 7021,1245 6896,1128 6727,1128 Z M 6137,1137 L 6013,1137 6013,1675 6406,1675 6406,1574 6137,1574 6137,1137 Z M 3483,1573 L 3369,1573 3369,1239 3483,1239 C 3590,1239 3660,1303 3660,1407 3660,1510 3590,1573 3483,1573 Z M 3489,1137 L 3245,1137 3245,1675 3489,1675 C 3665,1675 3785,1570 3785,1407 3785,1243 3665,1137 3489,1137 Z M 4140,1579 C 4044,1579 3971,1509 3971,1407 3971,1304 4044,1234 4140,1234 4235,1234 4308,1304 4308,1407 4308,1509 4235,1579 4140,1579 Z M 4140,1128 C 3970,1128 3846,1246 3846,1407 3846,1566 3970,1685 4140,1685 4308,1685 4434,1567 4434,1407 4434,1245 4308,1128 4140,1128 Z M 7934,1573 L 7820,1573 7820,1239 7934,1239 C 8040,1239 8110,1303 8110,1407 8110,1510 8040,1573 7934,1573 Z M 7940,1137 L 7696,1137 7696,1675 7940,1675 C 8116,1675 8236,1570 8236,1407 8236,1243 8116,1137 7940,1137 Z"/>
       </g>
      </g>
      <g class="com.sun.star.drawing.LineShape">
       <g id="id13">
        <rect class="BoundingBox" stroke="none" fill="none" x="1296" y="824" width="177" height="1091"/>
        <path fill="none" stroke="rgb(255,255,255)" stroke-width="176" stroke-linejoin="miter" stroke-linecap="round" d="M 1384,912 L 1384,1826"/>
       </g>
      </g>
      <g class="com.sun.star.drawing.PolyLineShape">
       <g id="id14">
        <rect class="BoundingBox" stroke="none" fill="none" x="902" y="1420" width="967" height="556"/>
        <path fill="none" stroke="rgb(255,255,255)" stroke-width="176" stroke-linejoin="miter" stroke-linecap="round" d="M 1779,1509 L 1385,1857 991,1509"/>
       </g>
      </g>
     </g>
    </g>
   </g>
  </g>
 </g>
</svg>